<svg xmlns="http://www.w3.org/2000/svg" version="1.1" xmlns:xlink="http://www.w3.org/1999/xlink" xmlns:svgjs="http://svgjs.dev/svgjs" width="1000" height="1000" viewBox="0 0 1000 1000"><rect width="1000" height="1000" fill="#8abcd7"></rect><g transform="matrix(0.7,0,0,0.7,149.57575757575756,295.3192746796078)"><svg viewBox="0 0 396 232" data-background-color="#8abcd7" preserveAspectRatio="xMidYMid meet" height="585" width="1000" xmlns="http://www.w3.org/2000/svg" xmlns:xlink="http://www.w3.org/1999/xlink"><defs></defs><g id="tight-bounds" transform="matrix(1,0,0,1,0.2400000000000091,-0.039247193330936625)"><svg viewBox="0 0 395.52 232.07849438666187" height="232.07849438666187" width="395.52"><g><svg viewBox="0 0 397.4975999999999 233.23888685859515" height="232.07849438666187" width="395.52"><g><rect width="397.4975999999999" height="7.143799050867473" x="0" y="128.1778389166298" fill="#ffffff" opacity="1" stroke-width="0" stroke="transparent" fill-opacity="1" class="rect-o-0" data-fill-palette-color="secondary" rx="1%" id="o-0" data-palette-color="#ffffff"></rect></g><g transform="matrix(1,0,0,1,0.9887999999999693,154.022682603276)"><svg viewBox="0 0 395.52 79.21620425531916" height="79.21620425531916" width="395.52"><g><svg viewBox="0 0 395.52 79.21620425531916" height="79.21620425531916" width="395.52"><g><svg viewBox="0 0 395.52 79.21620425531916" height="79.21620425531916" width="395.52"><g transform="matrix(1,0,0,1,0,0)"><svg width="395.52" viewBox="2 -35.099998474121094 176.24000549316406 35.29999923706055" height="79.21620425531916" data-palette-color="#ffffff"><path d="M23.3-34.1L23.3-34.1 22.7-31.25Q18.85-32.1 16.15-32.1L16.15-32.1Q6.45-32.1 6.45-26.2L6.45-26.2Q6.45-23.95 7.88-22.75 9.3-21.55 11.48-20.78 13.65-20 16.15-19.38 18.65-18.75 20.8-17.7L20.8-17.7Q25.85-15.2 25.85-10.05 25.85-4.9 22-2.25L22-2.25Q18.7 0.05 13.3 0.05L13.3 0.05Q6.6 0.05 2-3L2-3 3.3-5.55Q4.65-4.6 7.15-3.78 9.65-2.95 12-2.95L12-2.95Q16.6-2.95 19.25-4.45L19.25-4.45Q22.45-6.3 22.45-9.75L22.45-9.75Q22.45-12.3 21.03-13.73 19.6-15.15 17.43-16.03 15.25-16.9 12.75-17.53 10.25-18.15 8.1-19.1L8.1-19.1Q3.05-21.3 3.05-25.65 3.05-30 6.05-32.55 9.05-35.1 14.55-35.1L14.55-35.1Q18.8-35.1 23.3-34.1ZM50.7-25.6L50.7-25.6Q50.7-18.4 45.75-15.95L45.75-15.95 53.3 0 49.65 0 42.55-14.9Q40.75-14.6 38.6-14.6L38.6-14.6 34.75-14.6 34.75 0 31.35 0 31.35-35 38.6-35Q44.7-35 47.5-33.1L47.5-33.1Q50.7-30.95 50.7-25.6ZM38.35-32.25L34.75-32.25 34.75-17.35 38.35-17.35Q42.8-17.35 45.05-19.15 47.3-20.95 47.3-25.4L47.3-25.4Q47.3-31.1 42.1-32L42.1-32Q40.45-32.25 38.35-32.25L38.35-32.25ZM85.79 0L82.64 0 82.64-32 72.74-32 72.99-35 95.64-35 95.39-32 85.79-32 85.79 0ZM119.59-35L119.34-32 104.79-32 104.79-18.85 118.29-18.85 118.04-15.85 104.79-15.85 104.79-3 120.59-3 120.34 0 101.39 0 101.39-35 119.59-35ZM146.44-24.95L146.19-31.3Q143.64-32.3 140.84-32.3L140.84-32.3Q135.19-32.3 131.71-28.15 128.24-24 128.24-16 128.24-8 131.89-4.8L131.89-4.8Q134.39-2.55 138.84-2.55L138.84-2.55Q141.69-2.55 144.56-3.2 147.44-3.85 148.49-4.45L148.49-4.45 149.19-2Q146.99-0.55 141.49 0L141.49 0Q139.89 0.2 138.11 0.2 136.34 0.2 133.94-0.38 131.54-0.95 129.49-2.7L129.49-2.7Q124.84-6.65 124.84-15.85 124.84-25.05 129.21-30.08 133.59-35.1 140.59-35.1L140.59-35.1Q144.49-35.1 147.29-33.55L147.29-33.55Q148.34-33 148.94-32.35L148.94-32.35 148.94-25.1 146.44-24.95ZM158.09 0L154.94 0 154.94-35 158.09-35 158.09-18.85 175.09-18.85 175.09-35 178.24-35 178.24 0 175.09 0 175.09-15.85 158.09-15.85 158.09 0Z" opacity="1" transform="matrix(1,0,0,1,0,0)" fill="#ffffff" class="undefined-text-0" data-fill-palette-color="primary" id="text-0"></path></svg></g></svg></g></svg></g></svg></g><g transform="matrix(1,0,0,1,101.67869323736427,0)"><svg viewBox="0 0 194.14021352527138 109.47679428085108" height="109.47679428085108" width="194.14021352527138"><g><svg xmlns="http://www.w3.org/2000/svg" data-name="Layer 1" viewBox="2.430551767349243 20.79190444946289 95.1390609741211 58.46809768676758" x="8" y="0" height="109.47679428085108" width="178.14021352527138" class="icon-icon-0" data-fill-palette-color="accent" id="icon-0"><path d="M62.78 23l32 55.42 1.3-2.26h-64l1.3 2.26L65.37 23a1.5 1.5 0 0 0-2.59-1.51L30.79 77a1.51 1.51 0 0 0 1.3 2.26h64A1.51 1.51 0 0 0 97.37 77l-32-55.42A1.5 1.5 0 0 0 62.78 23Z" fill="#ffffff" data-fill-palette-color="accent"></path><path d="M34.63 23l32 55.42 1.3-2.26h-64l1.3 2.26L37.22 23a1.5 1.5 0 0 0-2.59-1.51L2.63 77a1.51 1.51 0 0 0 1.3 2.26h64A1.51 1.51 0 0 0 69.21 77l-32-55.42A1.5 1.5 0 0 0 34.63 23Z" fill="#ffffff" data-fill-palette-color="accent"></path></svg></g></svg></g><g><rect width="25.145573237364303" height="7.143799050867473" y="101.33299522998361" x="295.81890676263566" fill="#ffffff" data-fill-palette-color="secondary"></rect><rect width="25.145573237364303" height="7.143799050867473" y="101.33299522998361" x="76.53311999999997" fill="#ffffff" data-fill-palette-color="secondary"></rect></g></svg></g></svg><rect width="395.52" height="232.07849438666187" fill="none" stroke="none" visibility="hidden"></rect></g></svg></g></svg>